# xmcd
#
# Track frame offsets:
#	150
#	14651
#	28293
#	41804
#	56059
#	74981
#	90076
#	106784
#	122364
#	138173
#	155510
#	170971
#	188316
#	203456
#	219317
#	237362
#	253374
#	271620
#	287679
#	302156
#	318793
#
# Disc length: 4524 seconds
#
# Revision: 2
# Processed by: cddbd v1.5.2PL0 Copyright (c) Steve Scherf et al.
# Submitted via: audiograbber 1.83.01
#
DISCID=2911aa15
DTITLE=Various Artist - Bravo Hits 74 [CD2/2)
DYEAR=2011
DGENRE=Pop
TTITLE0=Tim Bendzko - Nur noch kurz die Welt retten
TTITLE1=Milow - Little In The Middle
TTITLE2=Brooke Fraser - Something In The Water
TTITLE3=Bruno Mars - The Lazy Song
TTITLE4=Rihanna - California King Bed
TTITLE5=Jennifer Lopez feat. Lil Wayne - I'm Into You
TTITLE6=Jessie J feat. B.O.B - Price Tag
TTITLE7=Keri Hilson - Pretty Girl Rock
TTITLE8=Sarah Engels and Pietro Lombardi - I Miss You
TTITLE9=Andreas Bourani - Nur in meinem Kopf
TTITLE10=Papermoon - Wake
TTITLE11=Colbie Caillat - Brighter Than The Sun
TTITLE12=Natasha Bedingfield - Pocketful Of Sunshine
TTITLE13=Hurts - Better Than Love
TTITLE14=Firefox Ak - Boom Boom Boom
TTITLE15=Bag Raiders - Way Back Home
TTITLE16=Coldplay - Every Teardrop Is A Waterfall
TTITLE17=The Naked and Famous - Punching In A Dream
TTITLE18=Melanie C - Rock Me
TTITLE19=Casper - So perfekt
TTITLE20=Limp Bizkit - Shotgun
EXTD=
EXTT0=
EXTT1=
EXTT2=
EXTT3=
EXTT4=
EXTT5=
EXTT6=
EXTT7=
EXTT8=
EXTT9=
EXTT10=
EXTT11=
EXTT12=
EXTT13=
EXTT14=
EXTT15=
EXTT16=
EXTT17=
EXTT18=
EXTT19=
EXTT20=
PLAYORDER=
